<?xml version="1.0" encoding="UTF-8"?><svg id="Layer_2" xmlns="http://www.w3.org/2000/svg" viewBox="0 0 745.79 192.84"><defs><style>.cls-1{fill:#fff;}</style></defs><g id="logo"><path d="m545.5,164.79c-.65-4.03.89-7.77,2.5-11.66,1.41-3.4,3.79-6.49,3.1-10.81-.35-2.16,1.48-4.67,2.34-7.02.1-.28.37-.51.45-.8,1.16-3.76,2.3-7.52,3.47-11.28.43-1.36.93-2.71,1.43-4.05,1.09-2.91,2.23-5.8,3.32-8.71,1.78-4.78,3.57-9.56,5.29-14.37.85-2.38,1.65-4.78,2.27-7.22.74-2.89,1.03-5.93,3.49-8.07.26-.23.55-.71.49-1-.91-4.54,2.74-7.94,3.01-12.27.18-2.78,1.84-5.45,2.65-8.22.67-2.3.38-4.92,2.42-6.75.24-.22.24-.71.34-1.08.84-3.39,1.73-6.77,2.5-10.18,1.26-5.56,2.16-11.22,3.79-16.67.76-2.54,2.81-4.71,4.4-6.97.46-.64,1.55-.83,2.01-1.47,2.49-3.42,6.09-4.32,10-4.92,6.23-.96,12.43-2.12,18.72-.68,3.21.74,6.34,1.82,9.57,2.45,9.35,1.83,12.36,8.85,14.19,16.93.22.97.54,1.92.76,2.89.16.67.57,1.61.29,1.99-2.38,3.23.52,6.5-.22,9.78-.73,3.28-.96,6.68-1.42,10.02-.08.59-.07,1.45-.43,1.72-1.97,1.42-2.11,3.28-1.89,5.48.08.82-.63,1.84-1.21,2.58-1.83,2.36-3.06,4.93-3.39,7.93-.38,3.51,2.2,6.47,5.73,6.57.9.02,1.8.28,2.69.48,4.82,1.1,9.64,2.21,14.46,3.32.37.09.85.02,1.11.23,4.04,3.16,7.88.34,11.75-.44.78-.16,1.67-1.19,1.99-2.02.89-2.34,1.5-4.79,2.25-7.18,1.03-3.3,2.18-6.57,3.09-9.9.64-2.35.85-4.81,1.45-7.18.96-3.77,2.2-7.47,3.07-11.26.34-1.46.19-3.11-.08-4.61-.28-1.52-.35-2.59,1.29-3.43.62-.32.81-1.56,1.1-2.41.44-1.32.77-2.67,1.21-3.99.21-.64.61-1.22.85-1.86.19-.5.13-1.18.45-1.53,1.85-2,3.83-3.89,5.69-5.89,3.53-3.82,8.77-3.66,13.08-5.65.79-.37,1.82-.46,2.7-.35,2.2.26,4.39.84,6.33-.86.19-.16.61-.17.89-.1,4.14,1.08,8.37,1.89,12.38,3.34,6.48,2.34,9.52,7.72,10.99,14.06,1.51,6.53,2.48,13.11.38,19.74-.23.72-.27,1.51-.36,2.27-.55,4.82-.88,9.68-1.67,14.46-.88,5.29-2.13,10.52-3.29,15.77-.9,4.07-1.99,8.1-2.8,12.19-.35,1.78.08,3.73-.34,5.49-1.73,7.21-3.67,14.37-5.5,21.56-.24.95-.29,1.96-.37,2.94-.06.76.17,1.61-.09,2.28-2.77,7.23-2.5,15.09-4.74,22.43-.11.36-.2.77-.15,1.14.95,6.48-1.51,12.56-2.75,18.66-.95,4.67-2.95,9.7-7.24,12.95-.12.09-.29.19-.33.32-1.28,4.26-5.19,5.35-8.59,6.93-1.54.72-3.36.88-5.08,1.15-7.91,1.21-15.79,1.25-23.66-.43-4.71-1.01-9.49-1.73-14.24-2.57-4.07-.72-7.48-2.85-10.51-5.44-3.79-3.24-4.22-7.8-3.98-12.45.05-.91.25-1.85.09-2.72-.35-1.91-.18-3.52,1.66-4.59.19-.11.43-.31.46-.5,1-5.34,5.2-9.82,4.21-15.71-.12-.69,0-1.72.44-2.14,1.49-1.42,1.43-3.07,1.31-4.89-.11-1.52.07-3.06.16-4.59.14-2.6-1.04-3.97-3.6-4.32-.88-.12-1.87-.37-2.55-.89-3.95-3.04-8.37-4.73-13.32-5.12-.75-.06-1.58-.23-2.19-.64-2.05-1.36-4.03-2.22-6.32-.47-.32.25-1.04.05-1.56-.03-4.91-.67-8.07,1.8-9.31,6.7-.64,2.51-2.29,4.76-3.12,7.24-1.81,5.36-3.4,10.78-5.03,16.2-.21.71-.07,1.53-.15,2.29-.08.68-.01,1.71-.41,1.95-2.4,1.49-2.25,3.69-2.04,6.01.04.47-.35,1-.61,1.46-1.34,2.37-2.56,4.83-4.12,7.05-1.2,1.71-2.69,3.3-4.33,4.59-2.21,1.73-4.56,3.37-7.07,4.59-4.32,2.1-8.86,3.01-13.79,2.4-3.99-.49-8.09-.03-12.11-.37-5.36-.46-10.27-2.55-14.62-5.61-3-2.11-5.17-8.45-5.47-14.18Z"/><path d="m335.22,107.07c-.04,4.9.03,9.04-1.82,12.92-.13.27-.34.63-.27.87,1.37,4.19-.87,7.85-2.02,11.52-1.03,3.29-2.36,6.41-2.61,9.92-.08,1.03-1.11,1.97-1.62,3-.77,1.57-1.49,3.16-2.17,4.77-.29.7-.22,1.62-.65,2.19-3.15,4.07-6.36,8.09-9.6,12.09-.67.82-1.52,1.49-2.29,2.23-2.57,2.49-5.01,5.11-7.73,7.41-1.97,1.66-4.14,3.37-6.52,4.21-5.42,1.89-10.23,5.35-16.31,5.69-4.28.24-8.51,1.62-12.74,2.59-2.4.55-4.72,1.3-7.17.08-.56-.28-1.72-.22-2.11.18-1.47,1.47-2.99,1.1-4.69.68-1.16-.29-2.45-.35-3.64-.2-3.69.47-7.29.47-10.75-1.2-.52-.25-1.47-.26-1.92.06-1.43,1.01-2.64.43-4.09.03-3.8-1.03-7.68-1.74-11.53-2.59-.74-.17-1.56-.27-2.19-.66-5.05-3.12-10.29-5.81-15.08-9.49-4.13-3.18-6.74-7.45-10.49-10.75-.39-.34-.7-.83-.93-1.31-2.06-4.26-4.21-8.47-6.08-12.82-.8-1.86-1-3.98-1.46-5.99-.12-.52-.05-1.11-.26-1.58-3.22-7.1-2.32-14.63-2.37-22.06,0-.95.42-1.9.67-2.85.15-.58.43-1.14.51-1.73.81-5.95,1.6-11.91,2.39-17.86,2.84-2.8,1.59-6.92,3.28-10.14,1.05-2,1.48-4.33,2.26-6.48.65-1.8,1.44-3.54,2.1-5.34.34-.92.73-1.89.75-2.84.03-1.52.4-2.68,1.82-3.42.38-.2.72-.61.9-1.01,1.18-2.52,2.14-5.16,3.5-7.57,1.44-2.57,3.24-4.94,4.91-7.37.3-.44.79-.74,1.09-1.18,1.89-2.85,3.71-5.74,5.63-8.56.51-.74,1.26-1.33,1.93-1.95,1.07-.99,2.41-1.79,3.2-2.96,3.78-5.58,9.53-9.09,14.43-13.4,4.82-4.24,10.87-7.09,16.4-10.53,1.63-1.01,3.27-2.02,4.98-2.87,1.69-.84,3.7-1.17,5.19-2.25,2.8-2.04,5.92-2.68,9.21-3.24,2.89-.49,5.7-1.47,8.56-2.16,2.58-.62,5.18-1.16,7.79-1.67,1.7-.33,3.42-.55,5.14-.77,2.02-.26,4.05-.61,6.08-.67,2.58-.07,5.2-.12,7.75.25,4.81.71,9.69,1.36,14.34,2.7,5.43,1.56,10.73,3.65,15.94,5.87,1.89.8,3.47,2.51,4.94,4.05,2.97,3.1,5.96,6.21,8.56,9.61,1.89,2.47,2.84,5.37,3,8.74.14,2.75.32,5.35-.39,8.03-1.29,4.83-2.55,9.57-7.33,12.39-1.68.99-2.81,3.05-4.54,3.75-3.3,1.33-6.85,2.05-10.3,2.98-.5.14-1.13-.1-1.59.09-4.96,2.06-9.65.17-14.37-.97-2.29-.55-4.58-1.32-6.69-2.35-3.87-1.9-7.79-1.19-11.73-.68-2.58.34-5.18.65-7.68,1.34-1.95.54-3.73,1.69-5.62,2.5-1.37.58-2.77,1.39-4.19,1.48-1.54.09-2.65.43-3.49,1.71-.28.43-.71.96-1.16,1.07-2.55.61-5,1.29-5.84,4.24-.02.06-.12.14-.18.13-4.17-.28-5.32,3.88-8.11,5.66-1.99,1.27-3.37,3.51-4.98,5.35-2.3,2.63-4.6,5.27-5.46,8.81-.14.57-.57,1.09-.94,1.57-4.05,5.29-5.54,11.29-5,17.86.18,2.14.33,4.28.51,6.42.02.3,0,.66.15.9,2.44,3.96,3.99,8.52,8.71,10.81,2.67,1.29,5.08,3.04,8.15,3.28.37.03.77.4,1.08.32,3.04-.78,6.62-.9,8.92-2.67,2.19-1.69,3.38-5.01,4.3-7.84.38-1.17-.92-3.05-1.77-4.42-1.28-2.05-3.22-3.76-4.18-5.92-2.87-6.45-4.35-13.16-1.55-20.05,1.13-2.77,2.02-5.87,5.23-7.2.14-.06.33-.14.37-.26,1.35-3.45,5.12-3.84,7.52-5.97.34-.3.76-.68,1.16-.71,2.52-.18,4.75-.74,6.22-3.13.23-.37,1.41-.14,2.15-.22,1.62-.16,3.23-.38,4.84-.51,3.63-.29,7.27-.8,10.9-.75,3.42.05,6.49,1.54,9.7,2.82,3.14,1.25,6.17,2.54,9.04,4.29.2.12.4.23.6.35,2.07,1.29,7.32,9.91,7.78,12.28.91,4.65,2.09,9.24,3.03,13.88.39,1.93.44,3.93.57,5.16Z"/><path d="m2.68,127.32c-.15-.9-.3-1.79-.45-2.69-.56-3.45-1.38-6.88-1.62-10.35C.19,108.14-.01,101.96,0,95.8c0-2.08.94-4.16,1.47-6.23.15-.59.54-1.17.52-1.75-.29-7.16,2.52-13.53,4.99-19.99.98-2.56,1.83-5.17,2.87-7.7.35-.85,1.18-1.49,1.67-2.31.54-.9,1.34-1.91,1.29-2.84-.09-1.79.4-2.97,2.02-3.71.4-.19,1.01-.54,1.02-.84.17-3.6,3.67-5.08,5.02-7.98.83-1.78,2.63-3.1,4.02-4.62.26-.28.63-.45.89-.73,2.24-2.45,4.12-5.41,6.78-7.24,2.81-1.94,4.18-5.84,8.19-6.08,1.59-2.45,3.65-4.1,6.74-4.15.29,0,.52-.87.84-1.28.46-.57.89-1.33,1.51-1.58,3.73-1.51,7.74-2.49,11.22-4.43,4.27-2.37,9.08-2.48,13.48-4.16.14-.05.3-.09.45-.09,6.48.13,12.73-1.95,19.41-1.09,4.45.58,8.76,2.09,13.23,2.14,6.04.07,11.18,3.01,16.67,4.82,2.51.83,4.91,2.25,7.08,3.78,7.02,4.97,13.6,10.36,19.12,17.12,4.21,5.16,6.95,10.97,9.49,16.93,1.05,2.46,1.16,5.32,1.68,8,.16.82.07,1.74.4,2.47,1.27,2.76,2.11,5.44,1.34,8.62-.44,1.81.39,3.88.36,5.83-.07,3.91-.34,7.82-.52,11.73-.02.38,0,.78-.09,1.14-.8,3.22-1.61,6.44-2.46,9.65-.97,3.68-1.8,7.42-3.04,11.01-1.26,3.64-2.94,7.14-4.43,10.71-.5,1.2-.95,2.42-1.47,3.61-1.46,3.32-2.43,7.03-4.59,9.81-1.99,2.56-2.91,5.48-4.49,8.1-2.66,4.42-5.85,8.55-9.06,12.61-2.73,3.45-5.72,6.71-8.76,9.9-2.35,2.47-4.94,4.7-7.44,7.02-.39.36-.84.68-1.29.96-4.51,2.7-9,5.43-13.55,8.05-1.24.71-2.65,1.11-3.99,1.63-.5.2-1.09.24-1.5.54-3.03,2.23-6.67,2.63-10.16,3.42-3.1.7-6.23,1.23-9.35,1.84-.38.07-.81.29-1.12.18-4.69-1.66-9.83.57-14.5-1.78-1.56-.78-3.61-.51-5.38-.97-7-1.81-13.73-4.28-19.57-8.71-3.64-2.76-7.82-5.03-10.84-8.35-3.61-3.96-8.06-7.28-10.48-12.28-.3-.62-.69-1.2-1.06-1.78-4.05-6.33-7.52-12.93-9.39-20.28-.29-1.15-1.11-2.17-1.6-3.28-.54-1.22-.98-2.48-1.46-3.73.18-.06.35-.11.53-.17ZM80.72,59.11c-1.9.43-3.96.55-5.67,1.38-2.36,1.15-4.14,3.42-7.02,3.61-.25.02-.64.31-.7.54-.82,3.04-4.95,3.73-5.14,7.27-.02.43-.95,1.04-1.55,1.17-1.88.41-2.13,1.55-2.01,3.24.07.98-.39,2.03-.75,3-.7,1.84-1.87,3.58-2.18,5.47-.76,4.63-1.69,9.34.39,13.94.21.46.19,1.05.18,1.58-.16,5.4,3.34,8.98,6.4,12.75.47.58,1.48.75,2.25,1.07.78.32,1.59.55,2.36.88,3.11,1.33,6.18,1.95,9.72,1.45,2.7-.38,5.01-.37,7.17-2.58,2.14-2.19,5.12-3.53,7.56-5.45.97-.76,1.55-2.05,2.2-3.16,1.4-2.42,2.72-4.88,4.11-7.31.18-.31.54-.57.88-.71,1.42-.57,1.64-1.61,1.44-2.99-.11-.73.03-1.52.14-2.27.55-3.73,1.03-7.48,1.72-11.18.87-4.66-.27-8.74-3.25-12.32-1.69-2.04-3.41-4.09-5.36-5.87-3.65-3.33-8.26-3.2-12.89-3.53Z"/><path d="m358.76,134.55c.2-2.37.42-4.27.52-6.18.11-2.04.04-4.08.2-6.11.1-1.24.36-2.5.76-3.68.9-2.66,1.9-5.29,2.93-7.91.56-1.42,1.08-2.92,1.94-4.15,1.52-2.17,2.93-4.29,2.93-7.08,0-.54.35-1.31.78-1.6,3.12-2.05,3.72-5.68,5.49-8.57,1-1.63,1.96-3.3,2.76-5.04.59-1.28,1.15-2.67,1.29-4.05.15-1.52.47-2.58,1.97-3.29.72-.34,1.35-1.21,1.68-1.98,1.18-2.8,2.19-5.68,3.3-8.51,1.04-2.63,2.06-5.27,3.2-7.86.64-1.46,1.58-2.8,2.25-4.25,1.57-3.37,2.9-6.87,4.62-10.16,1.88-3.59,4.15-6.97,6.14-10.51,1.77-3.14,3.7-6.08,6.26-8.69,3.72-3.8,7.27-7.69,12.82-8.77.43-.08.95-.27,1.21-.59,1.49-1.81,3.21-1.77,5.18-.92.51.22,1.31.29,1.77.04,4.25-2.31,8.16-.63,12.15.81,1.26.46,2.66.52,3.94.95.97.33,2.06.76,2.71,1.49,2.29,2.58,4.65,5.16,6.53,8.03,3.39,5.16,4.1,11.08,3.21,17-.86,5.71-2.23,11.37-3.78,16.94-.9,3.21-2.59,6.2-3.94,9.28-.58,1.33-1.1,2.7-1.79,3.97-.81,1.49-1.83,2.87-2.64,4.36-.53.97-.86,2.05-1.26,3.09-.43,1.1-.51,2.69-1.31,3.23-2.35,1.59-3.14,4.06-4.42,6.3-1.85,3.24-3.9,6.37-5.84,9.56-.71,1.17-1.43,2.35-2.05,3.57-.94,1.83-1.69,3.75-2.71,5.53-1.72,2.97-1.65,10.47.86,12.64,1.72,1.49,4.37,2.63,6.62,2.64,3.43.03,7.2-.36,10.22-1.82,4.06-1.97,8.35-4.5,11.02-7.97,2.31-3,5.02-6.29,5.85-10.43.28-1.41,1.56-2.6,2.14-3.99,1.53-3.68,2.91-7.42,4.39-11.12.54-1.35,1.28-2.62,1.79-3.98,1.64-4.34,3.2-8.71,4.84-13.05.7-1.84,1.27-3.8,2.35-5.41,2.72-4.06,2.28-9.32,5.27-13.28.93-1.23,1.14-2.98,1.76-4.45,1.37-3.21,2.49-6.59,4.28-9.55,1.77-2.9,2.82-6.49,6.32-8.12.73-.34,1.35-1.01,1.86-1.66,1.12-1.4,2.33-2.41,4.29-2.1.48.08,1.22-.03,1.5-.35,2.57-3.02,5.92-2.05,9.1-1.81,1.68.13,3.36.39,5,.75,6.95,1.51,13.29,4.32,17.47,10.29,3.03,4.32,4.69,9.24,4,14.77-.4,3.24-.05,6.57-.49,9.8-.59,4.37-1.6,8.69-2.45,13.03-.23,1.2-.47,2.4-.81,3.57-.47,1.63-1.08,3.22-1.57,4.85-.76,2.54-1.27,5.18-2.23,7.63-1.74,4.44-3.73,8.78-5.62,13.16-.18.42-.53.87-.48,1.27.39,3.12-1.61,5.26-2.9,7.75-1.4,2.69-2.08,5.76-3.6,8.36-2.63,4.51-4.05,9.64-7.56,13.72-1.68,1.96-2.35,4.76-3.92,6.85-3.09,4.12-4.78,9.19-8.96,12.59-1.47,1.19-2.06,3.39-3.35,4.88-3.11,3.58-5.96,7.59-9.7,10.38-5.48,4.09-9.97,9.66-16.79,11.86-.63.2-1.25.65-1.69,1.15-1.82,2.09-4.2,2.8-6.82,3.44-3.16.77-6.09,2.43-9.22,3.34-2.85.83-5.83,1.21-8.76,1.7-2.01.33-4.09.32-6.06.79-5.24,1.25-10.36-.11-15.53-.46-1.2-.08-2.42.1-3.63.18-.45.03-.98.26-1.35.1-5.13-2.16-10.72-2.61-16.02-4.36-7.03-2.32-12.05-7.43-18.31-10.67-1.8-.93-3.07-2.91-4.57-4.42-1.5-1.51-3.13-2.92-4.45-4.58-2.12-2.67-4.1-5.46-6.01-8.29-.8-1.19-1.41-2.55-1.91-3.9-1.14-3.07-2.39-6.12-3.15-9.28-.87-3.62-1.27-7.36-1.81-10.66Z"/><path class="cls-1" d="m80.72,59.11c4.63.33,9.24.2,12.89,3.53,1.95,1.78,3.66,3.84,5.36,5.87,2.98,3.58,4.12,7.66,3.25,12.32-.69,3.71-1.17,7.45-1.72,11.18-.11.75-.25,1.53-.14,2.27.2,1.37-.02,2.42-1.44,2.99-.34.13-.7.4-.88.71-1.39,2.42-2.71,4.89-4.11,7.31-.65,1.11-1.23,2.4-2.2,3.16-2.45,1.92-5.43,3.26-7.56,5.45-2.16,2.21-4.47,2.2-7.17,2.58-3.54.49-6.6-.12-9.72-1.45-.77-.33-1.58-.56-2.36-.88-.78-.32-1.78-.48-2.25-1.07-3.06-3.77-6.56-7.35-6.4-12.75.02-.53.03-1.12-.18-1.58-2.08-4.59-1.15-9.3-.39-13.94.31-1.89,1.48-3.63,2.18-5.47.37-.97.82-2.02.75-3-.12-1.69.13-2.83,2.01-3.24.6-.13,1.53-.74,1.55-1.17.19-3.54,4.32-4.23,5.14-7.27.06-.23.45-.52.7-.54,2.89-.19,4.67-2.46,7.02-3.61,1.71-.83,3.77-.94,5.67-1.38Z"/></g></svg>